<?xml version="1.0" encoding="UTF-8"?>
<svg version="1.1" xmlns="http://www.w3.org/2000/svg" width="512" height="512">
<path d="M0 0 C2.14582493 0.00854618 4.28900263 -0.02047824 6.43457031 -0.05200195 C23.7607355 -0.14077114 41.31834866 4.05357381 54.25097656 16.33276367 C78.81193389 43.72962535 79.46804641 81.59687643 79.52636719 116.37792969 C79.62165182 150.29687734 88.92493084 171.49314443 110.18066406 197.27197266 C116.2608325 204.7018029 121.73646979 212.52011745 127.14550781 220.44604492 C127.79664551 221.39495605 127.79664551 221.39495605 128.4609375 222.36303711 C157.32178001 264.53402989 174.70549135 302.79721443 165.51269531 354.48901367 C165.39152344 355.13483398 165.27035156 355.7806543 165.14550781 356.44604492 C165.65339844 356.77475586 166.16128906 357.1034668 166.68457031 357.44213867 C167.37292969 357.91780273 168.06128906 358.3934668 168.77050781 358.88354492 C169.44339844 359.33600586 170.11628906 359.7884668 170.80957031 360.25463867 C177.45070721 366.48486911 180.14751994 373.56177712 182.14550781 382.25854492 C185.21111549 394.37988913 189.19569012 403.31241185 197.24316406 413.02807617 C202.84002869 420.14195544 204.97843103 426.36676991 204.55175781 435.46557617 C203.53083487 442.95561662 199.57107434 446.18144527 193.75610352 450.62670898 C189.38906156 453.67012025 184.71252697 456.00985242 179.95800781 458.38354492 C177.91676828 459.42871289 175.87640022 460.47558464 173.83691406 461.52416992 C172.85867676 462.0249707 171.88043945 462.52577148 170.87255859 463.04174805 C156.92030424 470.22647204 143.59594411 478.65404293 133.95800781 491.32104492 C127.12739221 499.66957511 116.90191167 505.25321021 107.14550781 509.44604492 C106.39527344 509.78635742 105.64503906 510.12666992 104.87207031 510.47729492 C94.36170316 514.46017089 78.78128947 514.43718024 68.52832031 509.82495117 C59.46018241 504.57732383 51.85817549 497.41450623 48.39550781 487.24291992 C46.42628562 484.41216301 43.36384958 484.15452631 40.14550781 483.44604492 C37.20742829 482.95872175 34.26289609 482.61956752 31.30175781 482.30541992 C30.4637413 482.21363464 29.62572479 482.12184937 28.76231384 482.02728271 C26.0577867 481.7382376 23.35219941 481.46403952 20.64550781 481.19604492 C19.72134064 481.10444092 18.79717346 481.01283691 17.84500122 480.91845703 C3.63160806 479.54771845 -9.70800094 479.19359888 -23.85449219 481.44604492 C-25.97400833 481.73582773 -28.09381462 482.02349425 -30.21386719 482.30932617 C-32.36560379 482.62097142 -34.51667194 482.93727243 -36.66699219 483.25854492 C-37.64031494 483.39905273 -38.6136377 483.53956055 -39.61645508 483.68432617 C-48.18647599 485.10882969 -56.5511568 487.77559259 -61.97949219 494.94604492 C-68.86785975 503.22308539 -77.1616076 506.71386686 -87.85058594 507.73120117 C-105.17752862 508.22872886 -121.33646022 502.9902287 -137.16699219 496.44604492 C-152.70167681 490.15767188 -168.26840221 487.40796818 -184.79907227 485.23291016 C-197.63148118 483.52133609 -209.50067968 481.72968365 -218.41699219 471.50854492 C-222.18358643 463.62979733 -220.17542864 453.38108754 -218.32324219 445.21948242 C-216.14756199 434.63932905 -216.69221394 424.07624167 -216.99145508 413.3359375 C-217.50770991 393.16499165 -217.50770991 393.16499165 -212.85449219 387.44604492 C-207.85738051 382.43112457 -201.87792919 379.96728373 -195.35449219 377.50854492 C-188.43478604 374.73602503 -182.85634997 372.13490486 -177.85449219 366.44604492 C-177.18546875 365.73448242 -176.51644531 365.02291992 -175.82714844 364.28979492 C-174.43584602 362.77672116 -173.07679495 361.23330572 -171.75292969 359.66088867 C-169.85449219 357.44604492 -169.85449219 357.44604492 -168.01855469 355.76245117 C-164.18064316 351.86147537 -163.57753569 348.62619885 -163.60375977 343.17333984 C-163.64648115 341.541845 -163.69463452 339.91048469 -163.74780273 338.27929688 C-164.87289801 300.21903493 -145.00918423 262.88124363 -123.85449219 232.44604492 C-123.11972656 231.38514648 -122.38496094 230.32424805 -121.62792969 229.23120117 C-116.90703934 222.48986355 -111.94561282 215.97406933 -106.85449219 209.50854492 C-93.70925083 192.71155233 -83.77891019 176.45524534 -78.85449219 155.44604492 C-78.62890625 154.50631836 -78.40332031 153.5665918 -78.17089844 152.59838867 C-75.15924258 137.16624864 -76.48731887 120.60559167 -77.49169922 105.00195312 C-79.36978712 74.65801267 -77.58698897 43.65557128 -57.17089844 19.44995117 C-42.33240653 3.47277403 -20.78802284 -0.12548579 0 0 Z M-3.22949219 78.50854492 C-9.19881604 85.87674062 -12.70747949 95.87707828 -11.85449219 105.44604492 C-10.4426422 108.00614 -9.53365053 109.17074556 -6.81152344 110.27416992 C-6.10382813 110.41338867 -5.39613281 110.55260742 -4.66699219 110.69604492 C-3.40886719 110.94354492 -2.15074219 111.19104492 -0.85449219 111.44604492 C-0.57734375 110.39803711 -0.30019531 109.3500293 -0.01464844 108.27026367 C0.35118733 106.89134425 0.71707548 105.51243872 1.08300781 104.13354492 C1.26541016 103.44325195 1.4478125 102.75295898 1.63574219 102.04174805 C2.40483391 99.14716648 3.19812357 96.28819763 4.14550781 93.44604492 C7.82130351 91.45061297 11.00778905 90.8426276 15.14550781 91.44604492 C18.36612735 94.08109727 20.6213054 96.58110308 22.14550781 100.44604492 C22.79795619 107.69973568 22.32238248 114.50725693 20.14550781 121.44604492 C25.70853352 125.21625024 25.70853352 125.21625024 32.14550781 125.44604492 C35.39311664 122.14059065 36.07358907 118.36339142 36.83300781 113.94604492 C36.95748291 113.23552979 37.08195801 112.52501465 37.21020508 111.79296875 C39.0645554 100.5211045 39.2001924 90.28299105 32.79003906 80.34448242 C28.34642865 74.74529503 23.41245004 71.57609673 16.33300781 70.44604492 C8.33878731 69.98507318 2.294102 72.8110598 -3.22949219 78.50854492 Z M-60.56542969 81.55151367 C-66.77703493 91.08102512 -67.56715578 99.98176764 -65.69042969 111.05932617 C-64.18212602 117.17007048 -62.2048124 122.87916478 -56.85449219 126.44604492 C-55.53449219 125.45604492 -54.21449219 124.46604492 -52.85449219 123.44604492 C-53.14324219 122.76541992 -53.43199219 122.08479492 -53.72949219 121.38354492 C-56.50947786 114.12469343 -57.69538288 108.10875243 -55.85449219 100.44604492 C-54.40572302 97.95835576 -52.96767505 96.45085944 -50.85449219 94.44604492 C-50.09136719 94.92041992 -49.32824219 95.39479492 -48.54199219 95.88354492 C-45.89038671 97.54710589 -45.89038671 97.54710589 -42.85449219 98.44604492 C-41.97558594 101.09838867 -41.97558594 101.09838867 -41.29199219 104.38354492 C-40.48759047 108.89674129 -40.48759047 108.89674129 -37.85449219 112.44604492 C-34.69689186 110.92363048 -33.0128684 110.10786372 -30.85449219 107.44604492 C-29.23371675 99.65586621 -30.55978218 92.10158967 -34.85449219 85.44604492 C-38.92413753 79.87198092 -42.2318827 76.17593063 -49.22949219 75.07104492 C-54.19989452 75.7811024 -57.45260897 77.7208964 -60.56542969 81.55151367 Z M-45.85449219 125.44604492 C-46.84449219 126.24268555 -47.83449219 127.03932617 -48.85449219 127.86010742 C-51.53563169 130.03853327 -54.19713651 132.23872529 -56.85449219 134.44604492 C-57.83675781 135.24075195 -57.83675781 135.24075195 -58.83886719 136.05151367 C-61.78250432 138.3777897 -61.78250432 138.3777897 -63.85449219 141.44604492 C-64.41512425 147.27661839 -63.30573092 149.81287512 -59.85449219 154.44604492 C-50.08804748 164.86806854 -34.43678732 178.1348034 -19.60449219 179.00854492 C-8.42019546 178.43191863 2.13871321 172.20490726 11.89550781 167.13354492 C12.95382812 166.6030957 14.01214844 166.07264648 15.10253906 165.52612305 C23.39539347 161.23582972 33.08160895 155.84200145 36.14550781 146.44604492 C36.70060305 142.63967758 36.34362641 140.85053707 34.64550781 137.38354492 C28.58216148 130.25911298 19.2783536 127.0655131 10.89550781 123.38354492 C9.744375 122.86727539 8.59324219 122.35100586 7.40722656 121.8190918 C-14.36840841 112.18331195 -26.75853346 110.00364972 -45.85449219 125.44604492 Z M32.63867188 166.34228516 C24.7782265 171.43462905 16.67212305 176.00373308 8.39550781 180.38354492 C7.36748047 180.93872803 6.33945312 181.49391113 5.28027344 182.06591797 C-5.79390547 187.84448113 -16.81495786 191.44597369 -29.15527344 187.75854492 C-35.761448 185.13015575 -41.26448698 180.75650674 -46.85449219 176.44604492 C-47.74523437 175.76155273 -48.63597656 175.07706055 -49.55371094 174.37182617 C-51.66218734 172.73999122 -53.76252409 171.09895799 -55.85449219 169.44604492 C-57.79665184 172.3592844 -58.21045087 173.56017864 -58.71386719 176.88354492 C-58.9280127 178.21107788 -58.9280127 178.21107788 -59.14648438 179.56542969 C-59.29762695 180.51603271 -59.44876953 181.46663574 -59.60449219 182.44604492 C-61.44345325 193.16368511 -64.22732419 203.20875657 -67.85449219 213.44604492 C-68.11649414 214.2051416 -68.37849609 214.96423828 -68.6484375 215.74633789 C-72.97230436 228.17157319 -78.34634534 240.07624486 -83.85449219 252.00854492 C-95.54700723 277.34204914 -105.5602917 301.94825839 -108.47949219 329.94604492 C-108.85449219 333.44604492 -108.85449219 333.44604492 -109.85449219 334.44604492 C-110.82325058 332.6181989 -111.77896092 330.78343551 -112.72949219 328.94604492 C-113.53 327.41463867 -113.53 327.41463867 -114.34667969 325.85229492 C-121.62611672 309.40755635 -118.99913899 288.8649661 -112.85449219 272.44604492 C-109.63974011 264.45236982 -106.06718768 256.60308772 -102.01855469 248.99682617 C-101.63441406 248.15506836 -101.25027344 247.31331055 -100.85449219 246.44604492 C-101.34949219 245.45604492 -101.34949219 245.45604492 -101.85449219 244.44604492 C-116.37744332 267.68871876 -130.22261149 295.82080051 -124.79199219 323.94604492 C-120.30845849 341.37969221 -108.15699598 350.98743156 -93.75341797 360.22290039 C-77.49438184 370.69574315 -60.91178904 383.10674143 -55.22558594 402.60229492 C-54.30422437 407.64553721 -55.20021236 411.13284021 -57.85449219 415.44604492 C-61.08729831 418.01671004 -64.7533374 419.78986016 -68.85449219 420.44604492 C-67.28007234 429.57342483 -58.74929409 437.12395255 -51.76855469 442.50854492 C-34.55975037 453.95032366 -11.48969489 455.43593251 8.34082031 451.58276367 C22.74347696 448.39230176 43.78003779 441.83339303 52.19799805 428.81884766 C53.59840851 425.31186768 54.02633788 421.69011268 54.54785156 417.97338867 C54.67108292 417.13626846 54.79431427 416.29914825 54.92127991 415.43666077 C55.31499427 412.75318618 55.69930937 410.06846815 56.08300781 407.38354492 C56.59006939 403.89235965 57.10035054 400.40164564 57.61035156 396.91088867 C57.73633224 396.04671326 57.86231293 395.18253784 57.99211121 394.29217529 C58.88107865 388.2086134 59.7855344 382.12770527 60.72363281 376.05151367 C60.89770912 374.89690895 60.89770912 374.89690895 61.07530212 373.71897888 C63.02444054 361.24319847 66.66909397 350.29422591 77.14550781 342.63354492 C82.21767169 338.85607753 84.38242466 334.86005701 86.79394531 329.08276367 C88.27879468 326.18601996 89.29866813 324.99044258 92.14550781 323.44604492 C106.32010201 320.90423562 122.82904039 326.84842262 134.39550781 334.63354492 C138.14371804 338.46694175 140.53085327 342.79952028 143.14550781 347.44604492 C143.80550781 348.43604492 144.46550781 349.42604492 145.14550781 350.44604492 C146.49996149 349.30317106 146.49996149 349.30317106 146.45800781 346.25854492 C145.98207553 340.45217112 143.88179567 338.03811343 139.74707031 334.24682617 C134.81767391 330.06995667 129.97328963 326.46959823 124.11816406 323.71166992 C121.22585378 321.85600947 119.895876 320.46312692 118.14550781 317.44604492 C117.58073931 313.65791677 117.5939277 309.89566187 117.58300781 306.07104492 C117.06987454 284.43365562 111.37262257 266.29763247 99.14550781 248.44604492 C98.48550781 248.11604492 97.82550781 247.78604492 97.14550781 247.44604492 C98.44842156 250.87103106 99.96761149 254.12817373 101.6081543 257.40332031 C110.77106349 276.03563151 113.06535648 296.15166917 108.14550781 316.44604492 C104.51550781 315.78604492 100.88550781 315.12604492 97.14550781 314.44604492 C95.6184058 309.96297353 94.12944559 305.49250229 92.85644531 300.93041992 C88.15362211 284.1313332 81.16540025 268.67542945 73.71826172 252.93823242 C62.56033381 229.35709524 52.91903586 205.43073058 44.31835938 180.79125977 C42.28786027 174.99985702 40.21549089 169.22343606 38.14550781 163.44604492 C36.04001904 163.44604492 34.35355109 165.22424198 32.63867188 166.34228516 Z M-99.85449219 240.44604492 C-98.85449219 242.44604492 -98.85449219 242.44604492 -98.85449219 242.44604492 Z M-100.85449219 242.44604492 C-99.85449219 244.44604492 -99.85449219 244.44604492 -99.85449219 244.44604492 Z M95.14550781 244.44604492 C96.14550781 246.44604492 96.14550781 246.44604492 96.14550781 246.44604492 Z M102.14550781 338.44604492 C98.65687859 344.80033387 98.3033596 350.0658591 100.33300781 357.07104492 C102.10185818 361.96875796 104.84283705 364.69919124 108.95800781 367.82104492 C113.50210037 369.11935708 117.38412726 368.34728464 121.48925781 366.24682617 C126.22415134 363.24016878 130.09230079 360.17359127 133.14550781 355.44604492 C133.97900732 352.40264365 133.97900732 352.40264365 133.14550781 349.44604492 C127.49090354 342.89255716 118.17209711 337.73586491 109.52050781 336.38354492 C105.40658968 336.34544797 105.40658968 336.34544797 102.14550781 338.44604492 Z M-162.43261719 372.65307617 C-169.60309236 382.48734937 -178.21164888 386.95974333 -189.43652344 390.89135742 C-195.05664877 393.44771157 -197.91346011 396.79146757 -200.24980164 402.47470093 C-201.28335532 405.84417617 -201.181897 409.20706987 -201.07714844 412.68823242 C-201.06816025 413.45604034 -201.05917206 414.22384827 -201.0499115 415.0149231 C-201.02011545 417.45077712 -200.97039889 419.88560279 -200.91699219 422.32104492 C-200.54240197 441.20867408 -200.54240197 441.20867408 -202.85449219 449.44604492 C-203.461061 454.2069048 -203.33880565 457.47741801 -201.16699219 461.82104492 C-194.51242938 469.37487298 -184.47876633 469.56414283 -175.0222168 470.78881836 C-157.69165298 473.0468264 -142.54917391 476.68231512 -126.546875 483.62670898 C-112.10577438 489.85514549 -98.91189276 491.54751396 -83.69433594 486.71166992 C-78.70176947 484.48664718 -75.62283409 481.71581786 -73.10449219 476.88354492 C-72.49347656 475.73692383 -72.49347656 475.73692383 -71.87011719 474.56713867 C-69.1022193 468.7864904 -68.78768869 462.28910813 -70.50292969 456.11010742 C-74.0845511 447.63054219 -79.59567884 440.02290756 -85.16699219 432.75854492 C-90.06872236 426.31674411 -94.27698815 419.53232484 -98.50244141 412.63500977 C-100.87271501 408.79754621 -103.30751706 405.00099726 -105.72949219 401.19604492 C-108.91560146 396.18473768 -112.04909884 391.15081684 -115.07324219 386.03979492 C-115.60191895 385.14679688 -116.1305957 384.25379883 -116.67529297 383.33374023 C-117.68006053 381.62850794 -118.67886035 379.91973895 -119.67041016 378.20678711 C-124.54631001 369.92270665 -129.56654321 362.9155928 -138.85449219 359.44604492 C-150.12840603 357.29323725 -156.36395765 364.16596567 -162.43261719 372.65307617 Z M88.14550781 359.44604492 C80.2328396 367.94303325 77.76171163 378.25412467 76.64550781 389.50854492 C76.40339462 391.62604039 76.15850519 393.7432199 75.91113281 395.86010742 C75.78673828 396.94453125 75.66234375 398.02895508 75.53417969 399.14624023 C73.55100257 415.98331429 70.50699162 432.05648625 65.63378906 448.30541992 C62.79547699 457.8747321 60.65821323 470.14543702 64.97753906 479.57495117 C70.11963745 487.81262718 75.9830313 492.39188608 85.14550781 495.44604492 C99.14187739 496.85575121 110.08827023 491.69632598 121.14550781 483.44604492 C126.14247879 479.15735722 130.88645413 474.61643873 135.63378906 470.05541992 C146.43174108 459.94669888 158.90076589 453.30252201 172.06225586 446.78271484 C182.05425458 442.04333897 182.05425458 442.04333897 188.23925781 433.43432617 C187.9834893 425.28170476 182.02223744 417.74029604 176.85644531 411.77416992 C171.60947127 404.63445181 169.63719692 396.61251666 167.52246094 388.13549805 C165.68749091 381.24061067 163.44366519 375.82378628 157.45800781 371.50854492 C151.56969884 369.61984204 145.80814242 369.3314302 140.14550781 372.07104492 C137.99243101 373.28781378 135.90929851 374.59402194 133.81347656 375.90698242 C126.07283828 380.70983515 117.56386578 385.7139008 108.14550781 384.44604492 C101.85070482 382.49248537 98.13840235 379.19862293 95.08984375 373.45825195 C94.11996703 371.34702588 93.21358361 369.2209717 92.33300781 367.07104492 C92.02169922 366.33499023 91.71039063 365.59893555 91.38964844 364.84057617 C90.63231931 363.0462887 89.88758111 361.24669541 89.14550781 359.44604492 C88.81550781 359.44604492 88.48550781 359.44604492 88.14550781 359.44604492 Z " fill="#000000" transform="translate(263.8544921875,-0.446044921875)"/>
<path d="M0 0 C3.72695022 1.04820475 5.97874369 2.78664661 8.75 5.375 C15.48011892 11.38941597 21.81266126 13.79063075 30.89453125 13.4453125 C38.83843997 12.30618597 45.49099954 8.3682352 52.25 4.25 C57.02122969 1.35587252 60.43708712 0.10697909 66 0 C62.59967065 3.63019771 58.53239495 5.92780858 54.3125 8.5 C53.53455078 8.98597656 52.75660156 9.47195312 51.95507812 9.97265625 C42.1124551 15.99808186 31.99414359 19.43890047 20.3125 17.4375 C15.18269294 16.05532775 11.1749044 13.19747669 7 10 C6.30003906 9.47664062 5.60007813 8.95328125 4.87890625 8.4140625 C1.25425579 5.54059715 1.25425579 5.54059715 0 4 C0 2.68 0 1.36 0 0 Z " fill="#000000" transform="translate(217,182)"/>
</svg>
