<svg width="48" height="48" viewBox="0 0 48 48" fill="none" xmlns="http://www.w3.org/2000/svg">
  <path d="M24 4C17.9 8.7 15 15.1 15 24V36L9 42H39L33 36V24C33 15.1 30.1 8.7 24 4Z" fill="url(#paint0_linear)"/>
  <path d="M24 4C24 4 24 14 24 24C24 34 24 42 24 42H39L33 36V24C33 15.1 30.1 8.7 24 4Z" fill="url(#paint1_linear)" fillOpacity="0.4"/>
  <path d="M24 8C19.9 11.3 18 15.9 18 22V33L15 36H33L30 33V22C30 15.9 28.1 11.3 24 8Z" fill="url(#paint2_linear)"/>
  <path d="M21 25C21 23.3431 22.3431 22 24 22C25.6569 22 27 23.3431 27 25V42H21V25Z" fill="url(#paint3_linear)"/>
  <defs>
    <linearGradient id="paint0_linear" x1="24" y1="4" x2="24" y2="42" gradientUnits="userSpaceOnUse">
      <stop stopColor="#8B5CF6"/>
      <stop offset="1" stopColor="#6366F1"/>
    </linearGradient>
    <linearGradient id="paint1_linear" x1="31.5" y1="4" x2="31.5" y2="42" gradientUnits="userSpaceOnUse">
      <stop stopColor="white"/>
      <stop offset="1" stopColor="white" stopOpacity="0"/>
    </linearGradient>
    <linearGradient id="paint2_linear" x1="24" y1="8" x2="24" y2="36" gradientUnits="userSpaceOnUse">
      <stop stopColor="#C4B5FD"/>
      <stop offset="1" stopColor="#A5B4FC"/>
    </linearGradient>
    <linearGradient id="paint3_linear" x1="24" y1="22" x2="24" y2="42" gradientUnits="userSpaceOnUse">
      <stop stopColor="#7C3AED"/>
      <stop offset="1" stopColor="#4F46E5"/>
    </linearGradient>
  </defs>
</svg>