<svg width="81" height="32" viewBox="0 0 81 32" fill="none" xmlns="http://www.w3.org/2000/svg">
<path d="M5.4375 28.4868C4.25568 28.4868 3.26989 28.3249 2.48011 28.001C1.69602 27.6828 1.09943 27.2482 0.690341 26.697C0.286932 26.1459 0.0653409 25.5266 0.0255682 24.8391L3.46875 24.3874C3.53125 24.6544 3.65057 24.9016 3.8267 25.1289C4.00852 25.3561 4.26705 25.5379 4.60227 25.6743C4.94318 25.8107 5.38352 25.8789 5.9233 25.8789C6.71307 25.8789 7.40057 25.6857 7.9858 25.2993C8.57102 24.9186 8.93182 24.2794 9.06818 23.3817L9.46023 20.9868H9.30682C9.09091 21.3504 8.79545 21.6942 8.42045 22.0181C8.05114 22.3419 7.59943 22.6061 7.06534 22.8107C6.53693 23.0152 5.92614 23.1175 5.23295 23.1175C4.24432 23.1175 3.38636 22.8902 2.65909 22.4357C1.9375 21.9754 1.41477 21.2737 1.09091 20.3306C0.772727 19.3817 0.732955 18.1828 0.971591 16.734C1.22159 15.251 1.67045 14.0124 2.31818 13.0181C2.96591 12.0237 3.73295 11.2794 4.61932 10.7851C5.50568 10.2908 6.42898 10.0436 7.3892 10.0436C8.12216 10.0436 8.71307 10.1686 9.16193 10.4186C9.61648 10.6629 9.96591 10.9698 10.2102 11.3391C10.4545 11.7027 10.6278 12.0607 10.7301 12.4129H10.875L11.233 10.2141H14.8381L12.6392 23.4328C12.4631 24.5522 12.0398 25.484 11.3693 26.2283C10.7045 26.9783 9.8608 27.5408 8.83807 27.9158C7.81534 28.2965 6.68182 28.4868 5.4375 28.4868ZM6.80114 20.3902C7.38068 20.3902 7.90057 20.2453 8.3608 19.9556C8.8267 19.6601 9.21591 19.2397 9.52841 18.6942C9.84091 18.1431 10.0597 17.484 10.1847 16.7169C10.3097 15.9499 10.3068 15.2851 10.1761 14.7226C10.0511 14.1544 9.80682 13.7141 9.44318 13.4016C9.08523 13.0891 8.61364 12.9328 8.02841 12.9328C7.42614 12.9328 6.89773 13.0948 6.44318 13.4186C5.98864 13.7368 5.6108 14.18 5.30966 14.7482C5.0142 15.3164 4.80682 15.9726 4.6875 16.7169C4.5625 17.4726 4.55682 18.126 4.67045 18.6772C4.78977 19.2226 5.02557 19.6459 5.37784 19.947C5.73011 20.2425 6.20455 20.3902 6.80114 20.3902ZM21.4773 23.5607C20.1364 23.5607 19.0256 23.2879 18.1449 22.7425C17.2642 22.1914 16.6449 21.4129 16.2869 20.4073C15.9347 19.3959 15.875 18.1999 16.108 16.8192C16.3352 15.4726 16.7926 14.2908 17.4801 13.2737C18.1733 12.2567 19.0426 11.4641 20.0881 10.8959C21.1335 10.3277 22.2983 10.0436 23.5824 10.0436C24.446 10.0436 25.2273 10.1828 25.9261 10.4612C26.6307 10.734 27.2159 11.1487 27.6818 11.7056C28.1477 12.2567 28.4659 12.947 28.6364 13.7766C28.8125 14.6061 28.8097 15.5777 28.6278 16.6914L28.4659 17.6885H17.4205L17.7699 15.4385H25.4062C25.4915 14.9158 25.4574 14.4527 25.304 14.0493C25.1506 13.6459 24.8949 13.3306 24.5369 13.1033C24.179 12.8703 23.7386 12.7539 23.2159 12.7539C22.6818 12.7539 22.1818 12.8845 21.7159 13.1459C21.25 13.4073 20.858 13.751 20.5398 14.1772C20.2273 14.5976 20.0256 15.055 19.9347 15.5493L19.5341 17.7823C19.4205 18.4698 19.4432 19.0408 19.6023 19.4953C19.767 19.9499 20.0511 20.2908 20.4545 20.5181C20.858 20.7397 21.3693 20.8504 21.9886 20.8504C22.392 20.8504 22.7699 20.7936 23.1222 20.68C23.4801 20.5664 23.7983 20.3987 24.0767 20.1772C24.3551 19.9499 24.5824 19.6686 24.7585 19.3334L28.0739 19.555C27.767 20.3618 27.3011 21.0664 26.6761 21.6686C26.0511 22.2652 25.2983 22.7311 24.4176 23.0664C23.5426 23.3959 22.5625 23.5607 21.4773 23.5607ZM34.8217 15.7368L33.5604 23.305H29.9382L32.12 10.2141H35.5717L35.1967 12.5237H35.3416C35.7564 11.7567 36.3416 11.1516 37.0973 10.7084C37.8587 10.2652 38.7251 10.0436 39.6967 10.0436C40.6058 10.0436 41.3643 10.2425 41.9723 10.6402C42.5859 11.0379 43.0178 11.6033 43.2678 12.3362C43.5234 13.0692 43.5661 13.947 43.3956 14.9698L41.9979 23.305H38.3672L39.6541 15.6175C39.7848 14.8164 39.6825 14.1914 39.3473 13.7425C39.0178 13.2879 38.4865 13.0607 37.7536 13.0607C37.2649 13.0607 36.8161 13.1658 36.407 13.376C35.9979 13.5862 35.6541 13.8931 35.3757 14.2965C35.103 14.6942 34.9183 15.1743 34.8217 15.7368ZM44.8679 23.305L47.0497 10.2141H50.5014L50.1264 12.5237H50.2713C50.669 11.7567 51.223 11.1516 51.9332 10.7084C52.6491 10.2652 53.4531 10.0436 54.3452 10.0436C55.2315 10.0436 55.9531 10.2681 56.5099 10.7169C57.0724 11.1601 57.3963 11.7624 57.4815 12.5237H57.6179C58.0043 11.7737 58.5866 11.1743 59.3651 10.7254C60.1435 10.2709 61.0128 10.0436 61.973 10.0436C63.1832 10.0436 64.1094 10.4328 64.7514 11.2112C65.3935 11.9897 65.5952 13.0862 65.3565 14.501L63.8906 23.305H60.2599L61.6236 15.2169C61.7315 14.484 61.6236 13.9385 61.2997 13.5806C60.9759 13.2169 60.5241 13.0351 59.9446 13.0351C59.2855 13.0351 58.7372 13.2453 58.2997 13.6658C57.8622 14.0806 57.5923 14.6289 57.4901 15.3107L56.1349 23.305H52.6151L53.9957 15.1402C54.0923 14.4925 53.9872 13.9811 53.6804 13.6061C53.3793 13.2254 52.9276 13.0351 52.3253 13.0351C51.9276 13.0351 51.5497 13.1374 51.1918 13.3419C50.8395 13.5408 50.5412 13.822 50.2969 14.1857C50.0526 14.5436 49.8935 14.9641 49.8196 15.447L48.4901 23.305H44.8679ZM72.6648 23.5607C71.3239 23.5607 70.2131 23.2879 69.3324 22.7425C68.4517 22.1914 67.8324 21.4129 67.4744 20.4073C67.1222 19.3959 67.0625 18.1999 67.2955 16.8192C67.5227 15.4726 67.9801 14.2908 68.6676 13.2737C69.3608 12.2567 70.2301 11.4641 71.2756 10.8959C72.321 10.3277 73.4858 10.0436 74.7699 10.0436C75.6335 10.0436 76.4148 10.1828 77.1136 10.4612C77.8182 10.734 78.4034 11.1487 78.8693 11.7056C79.3352 12.2567 79.6534 12.947 79.8239 13.7766C80 14.6061 79.9972 15.5777 79.8153 16.6914L79.6534 17.6885H68.608L68.9574 15.4385H76.5938C76.679 14.9158 76.6449 14.4527 76.4915 14.0493C76.3381 13.6459 76.0824 13.3306 75.7244 13.1033C75.3665 12.8703 74.9261 12.7539 74.4034 12.7539C73.8693 12.7539 73.3693 12.8845 72.9034 13.1459C72.4375 13.4073 72.0455 13.751 71.7273 14.1772C71.4148 14.5976 71.2131 15.055 71.1222 15.5493L70.7216 17.7823C70.608 18.4698 70.6307 19.0408 70.7898 19.4953C70.9545 19.9499 71.2386 20.2908 71.642 20.5181C72.0455 20.7397 72.5568 20.8504 73.1761 20.8504C73.5795 20.8504 73.9574 20.7936 74.3097 20.68C74.6676 20.5664 74.9858 20.3987 75.2642 20.1772C75.5426 19.9499 75.7699 19.6686 75.946 19.3334L79.2614 19.555C78.9545 20.3618 78.4886 21.0664 77.8636 21.6686C77.2386 22.2652 76.4858 22.7311 75.6051 23.0664C74.7301 23.3959 73.75 23.5607 72.6648 23.5607Z" fill="#100F66"/>
</svg>
